solid ASCII
  facet normal 1.000000e+00 0.000000e+00 0.000000e+00
    outer loop
      vertex   0.000000e+00 0.000000e+00 8.326241e-01
      vertex   0.000000e+00 3.311994e+01 8.326241e-01
      vertex   0.000000e+00 0.000000e+00 2.747660e+01
    endloop
  endfacet
  facet normal 1.000000e+00 -0.000000e+00 0.000000e+00
    outer loop
      vertex   0.000000e+00 0.000000e+00 2.747660e+01
      vertex   0.000000e+00 3.311994e+01 8.326241e-01
      vertex   0.000000e+00 3.311994e+01 2.747660e+01
    endloop
  endfacet
  facet normal 0.000000e+00 0.000000e+00 1.000000e+00
    outer loop
      vertex   3.200977e+01 2.775414e-01 0.000000e+00
      vertex   6.272435e+01 2.775414e-01 0.000000e+00
      vertex   3.200977e+01 3.339748e+01 0.000000e+00
    endloop
  endfacet
  facet normal -0.000000e+00 0.000000e+00 1.000000e+00
    outer loop
      vertex   3.200977e+01 3.339748e+01 0.000000e+00
      vertex   6.272435e+01 2.775414e-01 0.000000e+00
      vertex   6.272435e+01 3.339748e+01 0.000000e+00
    endloop
  endfacet
endsolid
